<svg xmlns="http://www.w3.org/2000/svg" width="16" height="16"><path fill-rule="evenodd" clip-rule="evenodd" d="M13.287 15.99H1.713a.725.725 0 01-.724-.727V.737c0-.402.324-.727.724-.727H9.669l4.341 4.358v10.896a.724.724 0 01-.723.726zm-5.308-5.311c0 .125-.042.249-.056.374a3.42 3.42 0 000 .405c0-.125 0-.241-.035-.366s0-.249-.049-.374l-.88-4.507-1.209.079-.865 4.319a3.355 3.355 0 00-.063.374v.008c0-.125 0-.25-.049-.366l-.71-4.226L3 6.476l1.174 6.227 1.217.078.823-4.188v-.085a.508.508 0 000-.078v-.202c0 .125 0 .241.056.366l.95 4.335 1.301.085 1.47-7.005-1.266.07-.746 4.6zM9.018.991v4H13l-3.982-4z"/></svg>